<svg width="126" height="21" viewBox="0 0 126 21" fill="none" xmlns="http://www.w3.org/2000/svg">
<path d="M7.344 20.196C6.056 20.196 4.89867 19.972 3.872 19.524C2.864 19.0573 2.07067 18.4227 1.492 17.62C0.913333 16.7987 0.614667 15.856 0.596 14.792H3.312C3.40533 15.7067 3.77867 16.4813 4.432 17.116C5.104 17.732 6.07467 18.04 7.344 18.04C8.55733 18.04 9.50933 17.7413 10.2 17.144C10.9093 16.528 11.264 15.744 11.264 14.792C11.264 14.0453 11.0587 13.4387 10.648 12.972C10.2373 12.5053 9.724 12.1507 9.108 11.908C8.492 11.6653 7.66133 11.404 6.616 11.124C5.328 10.788 4.292 10.452 3.508 10.116C2.74267 9.78 2.08 9.25733 1.52 8.548C0.978667 7.82 0.708 6.84933 0.708 5.636C0.708 4.572 0.978667 3.62933 1.52 2.808C2.06133 1.98667 2.81733 1.352 3.788 0.903999C4.77733 0.455999 5.90667 0.231999 7.176 0.231999C9.00533 0.231999 10.4987 0.689333 11.656 1.604C12.832 2.51867 13.4947 3.732 13.644 5.244H10.844C10.7507 4.49733 10.3587 3.844 9.668 3.284C8.97733 2.70533 8.06267 2.416 6.924 2.416C5.86 2.416 4.992 2.696 4.32 3.256C3.648 3.79733 3.312 4.56267 3.312 5.552C3.312 6.26133 3.508 6.84 3.9 7.288C4.31067 7.736 4.80533 8.08133 5.384 8.324C5.98133 8.548 6.812 8.80933 7.876 9.108C9.164 9.46267 10.2 9.81733 10.984 10.172C11.768 10.508 12.44 11.04 13 11.768C13.56 12.4773 13.84 13.448 13.84 14.68C13.84 15.632 13.588 16.528 13.084 17.368C12.58 18.208 11.8333 18.8893 10.844 19.412C9.85467 19.9347 8.688 20.196 7.344 20.196ZM29.1256 15.66H20.6136L19.0456 20H16.3576L23.4136 0.595999H26.3536L33.3816 20H30.6936L29.1256 15.66ZM28.3976 13.588L24.8696 3.732L21.3416 13.588H28.3976ZM46.2288 9.948C46.9381 10.06 47.5821 10.3493 48.1608 10.816C48.7581 11.2827 49.2248 11.8613 49.5608 12.552C49.9154 13.2427 50.0928 13.98 50.0928 14.764C50.0928 15.7533 49.8408 16.6493 49.3368 17.452C48.8328 18.236 48.0954 18.8613 47.1248 19.328C46.1728 19.776 45.0434 20 43.7368 20H36.4568V0.483999H43.4568C44.7821 0.483999 45.9114 0.707999 46.8448 1.156C47.7781 1.58533 48.4781 2.17333 48.9448 2.92C49.4114 3.66667 49.6448 4.50667 49.6448 5.44C49.6448 6.59733 49.3274 7.55867 48.6928 8.324C48.0768 9.07067 47.2554 9.612 46.2288 9.948ZM39.0048 8.912H43.2888C44.4834 8.912 45.4074 8.632 46.0608 8.072C46.7141 7.512 47.0408 6.73733 47.0408 5.748C47.0408 4.75867 46.7141 3.984 46.0608 3.424C45.4074 2.864 44.4648 2.584 43.2328 2.584H39.0048V8.912ZM43.5128 17.9C44.7821 17.9 45.7714 17.6013 46.4808 17.004C47.1901 16.4067 47.5448 15.576 47.5448 14.512C47.5448 13.4293 47.1714 12.58 46.4248 11.964C45.6781 11.3293 44.6794 11.012 43.4288 11.012H39.0048V17.9H43.5128ZM56.1767 2.556V9.08H63.2887V11.18H56.1767V17.9H64.1287V20H53.6287V0.456H64.1287V2.556H56.1767ZM78.2601 20L73.6121 12.02H70.5321V20H67.9841V0.483999H74.2841C75.7588 0.483999 77.0001 0.735999 78.0081 1.24C79.0348 1.744 79.8001 2.42533 80.3041 3.284C80.8081 4.14267 81.0601 5.12267 81.0601 6.224C81.0601 7.568 80.6681 8.75333 79.8841 9.78C79.1188 10.8067 77.9615 11.488 76.4121 11.824L81.3121 20H78.2601ZM70.5321 9.976H74.2841C75.6655 9.976 76.7015 9.64 77.3921 8.968C78.0828 8.27733 78.4281 7.36267 78.4281 6.224C78.4281 5.06667 78.0828 4.17067 77.3921 3.536C76.7201 2.90133 75.6841 2.584 74.2841 2.584H70.5321V9.976Z" fill="white"/>
<path d="M109.547 0.483999L103.891 20H101.035L96.4993 4.292L91.7953 20L88.9673 20.028L83.5073 0.483999H86.2233L90.4793 17.032L95.1833 0.483999H98.0393L102.519 16.976L106.803 0.483999H109.547ZM125.384 6.196C125.384 7.82 124.824 9.17333 123.704 10.256C122.602 11.32 120.913 11.852 118.636 11.852H114.884V20H112.336V0.483999H118.636C120.838 0.483999 122.509 1.016 123.648 2.08C124.805 3.144 125.384 4.516 125.384 6.196ZM118.636 9.752C120.054 9.752 121.1 9.444 121.772 8.828C122.444 8.212 122.78 7.33467 122.78 6.196C122.78 3.788 121.398 2.584 118.636 2.584H114.884V9.752H118.636Z" fill="#C5C5C5"/>
</svg>
